<svg xmlns="http://www.w3.org/2000/svg" width="24" height="24" viewBox="0 0 24 24" fill="none">
  <circle cx="12" cy="12" r="12" fill="url(#paint0_linear_4275_130)"/>
  <circle cx="12" cy="12" r="10.2" fill="url(#paint1_linear_4275_130)" stroke="#FFF7ED" stroke-width="2"/>
  <path d="M9.37676 12.64H13.7601L8.01973 21.12H8.00006L9.37676 12.64Z" fill="#FFF7ED"/>
  <path d="M8.1008 7.51998H10.7201L9.17932 14.72H6.56006L8.1008 7.51998Z" fill="#FFF7ED"/>
  <path d="M14.3201 4.47998H8.8992L8.08006 6.87998H12.904C13.7302 6.87998 14.4001 7.5498 14.4001 8.37607C14.4001 9.18966 13.7499 9.85411 12.9365 9.8718L10.7201 9.91998L10.4001 12H14.3201C16.3967 12 18.0801 10.3166 18.0801 8.23998C18.0801 6.16339 16.3966 4.47998 14.3201 4.47998Z" fill="#FFF7ED"/>
  <path d="M9.60006 7.51998H13.7601L13.1298 9.27998H10.2304L9.60006 7.51998Z" fill="#FFF7ED"/>
  <defs>
    <linearGradient id="paint0_linear_4275_130" x1="-14.0241" y1="-18.9268" x2="58.6748" y2="35.6346" gradientUnits="userSpaceOnUse">
      <stop stop-color="#DB2777"/>
      <stop offset="1" stop-color="#F97316"/>
    </linearGradient>
    <linearGradient id="paint1_linear_4275_130" x1="-12.2891" y1="-16.8651" x2="55.5632" y2="34.0589" gradientUnits="userSpaceOnUse">
      <stop stop-color="#DB2777"/>
      <stop offset="1" stop-color="#F97316"/>
    </linearGradient>
  </defs>
</svg>